<?xml version="1.0" standalone="no"?>
<!DOCTYPE svg PUBLIC "-//W3C//DTD SVG 20010904//EN"
 "http://www.w3.org/TR/2001/REC-SVG-20010904/DTD/svg10.dtd">
<svg version="1.0" xmlns="http://www.w3.org/2000/svg"
 width="200.000000pt" height="200.000000pt" viewBox="0 0 200.000000 200.000000"
 preserveAspectRatio="xMidYMid meet">

<g transform="translate(0.000000,200.000000) scale(0.100000,-0.100000)"
fill="#000000" stroke="none">
<path d="M932 1519 c-115 -58 -229 -301 -277 -587 -21 -125 -15 -189 26 -271
36 -71 101 -134 177 -169 82 -38 202 -38 284 0 115 54 200 168 214 288 11 101
-40 333 -111 501 -89 210 -201 295 -313 238z m-12 -195 c-78 -221 -106 -463
-66 -569 23 -62 43 -85 71 -85 48 0 55 34 25 120 -25 71 -25 124 1 257 26 137
96 356 112 350 21 -7 96 -160 132 -269 43 -131 69 -277 61 -338 -7 -48 -42
-130 -57 -130 -18 0 -67 82 -79 131 -11 43 -10 69 6 166 19 126 16 146 -29
151 -37 5 -53 -26 -73 -147 -14 -88 -15 -115 -5 -169 13 -71 36 -123 76 -171
l27 -31 -28 -10 c-137 -52 -298 24 -338 161 -20 65 -20 85 -1 193 19 111 68
262 112 351 36 72 73 129 78 123 2 -2 -9 -40 -25 -84z"/>
</g>
</svg>
